<svg xmlns="http://www.w3.org/2000/svg" viewBox="0 0 1200 310" width="1200" height="310" role="img" aria-label="Stack: Python, C++, SQL; LangChain, LangGraph, MCP, hybrid RAG, Groq, GPT-4o, Ollama; FastAPI, Pydantic, PostgreSQL, ChromaDB, FAISS, Qdrant, Pandas; AWS, Terraform, Docker, GitHub Actions."><title>Stack</title><rect width="1200" height="310" rx="14" fill="#0F1E33"/><text x="34" y="74.5" font-family="-apple-system, BlinkMacSystemFont, 'Segoe UI', Helvetica, Arial, sans-serif" font-size="14.5" font-weight="700" fill="#F2F5F9">Languages</text><rect x="184.0" y="56" width="79.6" height="27" rx="13.5" fill="none" stroke="#FFB020" stroke-width="1.3"/><circle cx="198.0" cy="69.5" r="3" fill="#FFB020"/><text x="208.0" y="74.0" font-family="ui-monospace, SFMono-Regular, Menlo, Consolas, monospace" font-size="12.5" fill="#F2F5F9">Python</text><rect x="271.6" y="56" width="56.8" height="27" rx="13.5" fill="none" stroke="#FFB020" stroke-width="1.3"/><circle cx="285.6" cy="69.5" r="3" fill="#FFB020"/><text x="295.6" y="74.0" font-family="ui-monospace, SFMono-Regular, Menlo, Consolas, monospace" font-size="12.5" fill="#F2F5F9">C++</text><rect x="336.4" y="56" width="56.8" height="27" rx="13.5" fill="none" stroke="#FFB020" stroke-width="1.3"/><circle cx="350.4" cy="69.5" r="3" fill="#FFB020"/><text x="360.4" y="74.0" font-family="ui-monospace, SFMono-Regular, Menlo, Consolas, monospace" font-size="12.5" fill="#F2F5F9">SQL</text><line x1="34" y1="103.0" x2="1170" y2="103.0" stroke="#22385A"/><text x="34" y="141.5" font-family="-apple-system, BlinkMacSystemFont, 'Segoe UI', Helvetica, Arial, sans-serif" font-size="14.5" font-weight="700" fill="#F2F5F9">AI &amp; agentic</text><rect x="184.0" y="123" width="102.4" height="27" rx="13.5" fill="none" stroke="#3FD0C9" stroke-width="1.3"/><circle cx="198.0" cy="136.5" r="3" fill="#3FD0C9"/><text x="208.0" y="141.0" font-family="ui-monospace, SFMono-Regular, Menlo, Consolas, monospace" font-size="12.5" fill="#F2F5F9">LangChain</text><rect x="294.4" y="123" width="102.4" height="27" rx="13.5" fill="none" stroke="#3FD0C9" stroke-width="1.3"/><circle cx="308.4" cy="136.5" r="3" fill="#3FD0C9"/><text x="318.4" y="141.0" font-family="ui-monospace, SFMono-Regular, Menlo, Consolas, monospace" font-size="12.5" fill="#F2F5F9">LangGraph</text><rect x="404.8" y="123" width="56.8" height="27" rx="13.5" fill="none" stroke="#3FD0C9" stroke-width="1.3"/><circle cx="418.8" cy="136.5" r="3" fill="#3FD0C9"/><text x="428.8" y="141.0" font-family="ui-monospace, SFMono-Regular, Menlo, Consolas, monospace" font-size="12.5" fill="#F2F5F9">MCP</text><rect x="469.6" y="123" width="110.0" height="27" rx="13.5" fill="none" stroke="#3FD0C9" stroke-width="1.3"/><circle cx="483.6" cy="136.5" r="3" fill="#3FD0C9"/><text x="493.6" y="141.0" font-family="ui-monospace, SFMono-Regular, Menlo, Consolas, monospace" font-size="12.5" fill="#F2F5F9">Hybrid RAG</text><rect x="587.6" y="123" width="64.4" height="27" rx="13.5" fill="none" stroke="#3FD0C9" stroke-width="1.3"/><circle cx="601.6" cy="136.5" r="3" fill="#3FD0C9"/><text x="611.6" y="141.0" font-family="ui-monospace, SFMono-Regular, Menlo, Consolas, monospace" font-size="12.5" fill="#F2F5F9">Groq</text><rect x="660.0" y="123" width="79.6" height="27" rx="13.5" fill="none" stroke="#3FD0C9" stroke-width="1.3"/><circle cx="674.0" cy="136.5" r="3" fill="#3FD0C9"/><text x="684.0" y="141.0" font-family="ui-monospace, SFMono-Regular, Menlo, Consolas, monospace" font-size="12.5" fill="#F2F5F9">GPT-4o</text><rect x="747.6" y="123" width="79.6" height="27" rx="13.5" fill="none" stroke="#3FD0C9" stroke-width="1.3"/><circle cx="761.6" cy="136.5" r="3" fill="#3FD0C9"/><text x="771.6" y="141.0" font-family="ui-monospace, SFMono-Regular, Menlo, Consolas, monospace" font-size="12.5" fill="#F2F5F9">Ollama</text><line x1="34" y1="170.0" x2="1170" y2="170.0" stroke="#22385A"/><text x="34" y="208.5" font-family="-apple-system, BlinkMacSystemFont, 'Segoe UI', Helvetica, Arial, sans-serif" font-size="14.5" font-weight="700" fill="#F2F5F9">Backend &amp; data</text><rect x="184.0" y="190" width="87.2" height="27" rx="13.5" fill="none" stroke="#F0648C" stroke-width="1.3"/><circle cx="198.0" cy="203.5" r="3" fill="#F0648C"/><text x="208.0" y="208.0" font-family="ui-monospace, SFMono-Regular, Menlo, Consolas, monospace" font-size="12.5" fill="#F2F5F9">FastAPI</text><rect x="279.2" y="190" width="94.8" height="27" rx="13.5" fill="none" stroke="#F0648C" stroke-width="1.3"/><circle cx="293.2" cy="203.5" r="3" fill="#F0648C"/><text x="303.2" y="208.0" font-family="ui-monospace, SFMono-Regular, Menlo, Consolas, monospace" font-size="12.5" fill="#F2F5F9">Pydantic</text><rect x="382.0" y="190" width="110.0" height="27" rx="13.5" fill="none" stroke="#F0648C" stroke-width="1.3"/><circle cx="396.0" cy="203.5" r="3" fill="#F0648C"/><text x="406.0" y="208.0" font-family="ui-monospace, SFMono-Regular, Menlo, Consolas, monospace" font-size="12.5" fill="#F2F5F9">PostgreSQL</text><rect x="500.0" y="190" width="94.8" height="27" rx="13.5" fill="none" stroke="#F0648C" stroke-width="1.3"/><circle cx="514.0" cy="203.5" r="3" fill="#F0648C"/><text x="524.0" y="208.0" font-family="ui-monospace, SFMono-Regular, Menlo, Consolas, monospace" font-size="12.5" fill="#F2F5F9">ChromaDB</text><rect x="602.8" y="190" width="72.0" height="27" rx="13.5" fill="none" stroke="#F0648C" stroke-width="1.3"/><circle cx="616.8" cy="203.5" r="3" fill="#F0648C"/><text x="626.8" y="208.0" font-family="ui-monospace, SFMono-Regular, Menlo, Consolas, monospace" font-size="12.5" fill="#F2F5F9">FAISS</text><rect x="682.8" y="190" width="79.6" height="27" rx="13.5" fill="none" stroke="#F0648C" stroke-width="1.3"/><circle cx="696.8" cy="203.5" r="3" fill="#F0648C"/><text x="706.8" y="208.0" font-family="ui-monospace, SFMono-Regular, Menlo, Consolas, monospace" font-size="12.5" fill="#F2F5F9">Qdrant</text><rect x="770.4" y="190" width="79.6" height="27" rx="13.5" fill="none" stroke="#F0648C" stroke-width="1.3"/><circle cx="784.4" cy="203.5" r="3" fill="#F0648C"/><text x="794.4" y="208.0" font-family="ui-monospace, SFMono-Regular, Menlo, Consolas, monospace" font-size="12.5" fill="#F2F5F9">Pandas</text><line x1="34" y1="237.0" x2="1170" y2="237.0" stroke="#22385A"/><text x="34" y="275.5" font-family="-apple-system, BlinkMacSystemFont, 'Segoe UI', Helvetica, Arial, sans-serif" font-size="14.5" font-weight="700" fill="#F2F5F9">Cloud &amp; infra</text><rect x="184.0" y="257" width="56.8" height="27" rx="13.5" fill="none" stroke="#8B9CFF" stroke-width="1.3"/><circle cx="198.0" cy="270.5" r="3" fill="#8B9CFF"/><text x="208.0" y="275.0" font-family="ui-monospace, SFMono-Regular, Menlo, Consolas, monospace" font-size="12.5" fill="#F2F5F9">AWS</text><rect x="248.8" y="257" width="102.4" height="27" rx="13.5" fill="none" stroke="#8B9CFF" stroke-width="1.3"/><circle cx="262.8" cy="270.5" r="3" fill="#8B9CFF"/><text x="272.8" y="275.0" font-family="ui-monospace, SFMono-Regular, Menlo, Consolas, monospace" font-size="12.5" fill="#F2F5F9">Terraform</text><rect x="359.2" y="257" width="79.6" height="27" rx="13.5" fill="none" stroke="#8B9CFF" stroke-width="1.3"/><circle cx="373.2" cy="270.5" r="3" fill="#8B9CFF"/><text x="383.2" y="275.0" font-family="ui-monospace, SFMono-Regular, Menlo, Consolas, monospace" font-size="12.5" fill="#F2F5F9">Docker</text><rect x="446.8" y="257" width="140.4" height="27" rx="13.5" fill="none" stroke="#8B9CFF" stroke-width="1.3"/><circle cx="460.8" cy="270.5" r="3" fill="#8B9CFF"/><text x="470.8" y="275.0" font-family="ui-monospace, SFMono-Regular, Menlo, Consolas, monospace" font-size="12.5" fill="#F2F5F9">GitHub Actions</text></svg>